# xmcd
#
# Track frame offsets: 
#        150
#        15561
#        35737
#        62819
#        83573
#        116467
#        137740
#        156175
#
# Disc length: 2389 seconds
#
# Revision: 0
# Processed by: cddbd v1.5.1PL0 Copyright (c) Steve Scherf et al.
# Submitted via: ExactAudioCopy v0.95a5
#
DISCID=60095308
DTITLE=Jimmy Baker and The Blues Encounters - Look In The Mirror
DYEAR=2002
DGENRE=Blues
TTITLE0=Travelin' Man
TTITLE1=Keep On Runnin'
TTITLE2=Down Don't Bother Me
TTITLE3=Look In The Mirror
TTITLE4=How Can I
TTITLE5=Good Man
TTITLE6=Do What You Want To Do
TTITLE7=You're Gonna Miss Me
EXTD=
EXTT0=
EXTT1=
EXTT2=
EXTT3=
EXTT4=
EXTT5=
EXTT6=
EXTT7=
PLAYORDER=
